<svg width="360" height="60" viewBox="0 0 360 60" fill="none" xmlns="http://www.w3.org/2000/svg">
<rect x="0.5" y="0.5" width="359" height="59" rx="29.5" fill="white" fill-opacity="0.5" stroke="white"/>
<path d="M23.3351 35.098C22.6818 35.098 22.0938 34.986 21.5711 34.762C21.0484 34.5287 20.6378 34.202 20.3391 33.782C20.0404 33.362 19.8911 32.872 19.8911 32.312H21.5991C21.6364 32.732 21.7998 33.0773 22.0891 33.348C22.3878 33.6187 22.8031 33.754 23.3351 33.754C23.8858 33.754 24.3151 33.6233 24.6231 33.362C24.9311 33.0913 25.0851 32.746 25.0851 32.326C25.0851 31.9993 24.9871 31.7333 24.7911 31.528C24.6044 31.3227 24.3664 31.164 24.0771 31.052C23.7971 30.94 23.4051 30.8187 22.9011 30.688C22.2664 30.52 21.7484 30.352 21.3471 30.184C20.9551 30.0067 20.6191 29.736 20.3391 29.372C20.0591 29.008 19.9191 28.5227 19.9191 27.916C19.9191 27.356 20.0591 26.866 20.3391 26.446C20.6191 26.026 21.0111 25.704 21.5151 25.48C22.0191 25.256 22.6024 25.144 23.2651 25.144C24.2078 25.144 24.9778 25.382 25.5751 25.858C26.1818 26.3247 26.5178 26.9687 26.5831 27.79H24.8191C24.7911 27.4353 24.6231 27.132 24.3151 26.88C24.0071 26.628 23.6011 26.502 23.0971 26.502C22.6398 26.502 22.2664 26.6187 21.9771 26.852C21.6878 27.0853 21.5431 27.4213 21.5431 27.86C21.5431 28.1587 21.6318 28.406 21.8091 28.602C21.9958 28.7887 22.2291 28.938 22.5091 29.05C22.7891 29.162 23.1718 29.2833 23.6571 29.414C24.3011 29.5913 24.8238 29.7687 25.2251 29.946C25.6358 30.1233 25.9811 30.3987 26.2611 30.772C26.5504 31.136 26.6951 31.626 26.6951 32.242C26.6951 32.7367 26.5598 33.2033 26.2891 33.642C26.0278 34.0807 25.6404 34.4353 25.1271 34.706C24.6231 34.9673 24.0258 35.098 23.3351 35.098ZM35.6483 30.954C35.6483 31.2433 35.6297 31.5047 35.5923 31.738H29.6983C29.745 32.354 29.9737 32.8487 30.3843 33.222C30.795 33.5953 31.299 33.782 31.8963 33.782C32.755 33.782 33.3617 33.4227 33.7163 32.704H35.4383C35.205 33.4133 34.7803 33.9967 34.1643 34.454C33.5577 34.902 32.8017 35.126 31.8963 35.126C31.159 35.126 30.4963 34.9627 29.9083 34.636C29.3297 34.3 28.8723 33.8333 28.5363 33.236C28.2097 32.6293 28.0463 31.9293 28.0463 31.136C28.0463 30.3427 28.205 29.6473 28.5223 29.05C28.849 28.4433 29.3017 27.9767 29.8803 27.65C30.4683 27.3233 31.1403 27.16 31.8963 27.16C32.6243 27.16 33.273 27.3187 33.8423 27.636C34.4117 27.9533 34.855 28.4013 35.1723 28.98C35.4897 29.5493 35.6483 30.2073 35.6483 30.954ZM33.9823 30.45C33.973 29.862 33.763 29.3907 33.3523 29.036C32.9417 28.6813 32.433 28.504 31.8263 28.504C31.2757 28.504 30.8043 28.6813 30.4123 29.036C30.0203 29.3813 29.787 29.8527 29.7123 30.45H33.9823ZM36.6869 31.108C36.6869 30.3333 36.8456 29.6473 37.1629 29.05C37.4896 28.4527 37.9283 27.9907 38.4789 27.664C39.0389 27.328 39.6549 27.16 40.3269 27.16C40.9336 27.16 41.4609 27.2813 41.9089 27.524C42.3663 27.7573 42.7303 28.0513 43.0009 28.406V27.286H44.6109V35H43.0009V33.852C42.7303 34.216 42.3616 34.5193 41.8949 34.762C41.4283 35.0047 40.8963 35.126 40.2989 35.126C39.6363 35.126 39.0296 34.958 38.4789 34.622C37.9283 34.2767 37.4896 33.8007 37.1629 33.194C36.8456 32.578 36.6869 31.8827 36.6869 31.108ZM43.0009 31.136C43.0009 30.604 42.8889 30.142 42.6649 29.75C42.4503 29.358 42.1656 29.0593 41.8109 28.854C41.4563 28.6487 41.0736 28.546 40.6629 28.546C40.2523 28.546 39.8696 28.6487 39.5149 28.854C39.1603 29.05 38.8709 29.344 38.6469 29.736C38.4323 30.1187 38.3249 30.576 38.3249 31.108C38.3249 31.64 38.4323 32.1067 38.6469 32.508C38.8709 32.9093 39.1603 33.2173 39.5149 33.432C39.8789 33.6373 40.2616 33.74 40.6629 33.74C41.0736 33.74 41.4563 33.6373 41.8109 33.432C42.1656 33.2267 42.4503 32.928 42.6649 32.536C42.8889 32.1347 43.0009 31.668 43.0009 31.136ZM48.3032 28.406C48.5366 28.014 48.8446 27.7107 49.2272 27.496C49.6192 27.272 50.0812 27.16 50.6132 27.16V28.812H50.2072C49.5819 28.812 49.1059 28.9707 48.7792 29.288C48.4619 29.6053 48.3032 30.156 48.3032 30.94V35H46.7072V27.286H48.3032V28.406ZM51.5483 31.136C51.5483 30.3427 51.7069 29.6473 52.0243 29.05C52.3509 28.4433 52.7989 27.9767 53.3683 27.65C53.9376 27.3233 54.5909 27.16 55.3283 27.16C56.2616 27.16 57.0316 27.384 57.6383 27.832C58.2543 28.2707 58.6696 28.9007 58.8843 29.722H57.1623C57.0223 29.3393 56.7983 29.0407 56.4903 28.826C56.1823 28.6113 55.7949 28.504 55.3283 28.504C54.6749 28.504 54.1523 28.7373 53.7603 29.204C53.3776 29.6613 53.1863 30.3053 53.1863 31.136C53.1863 31.9667 53.3776 32.6153 53.7603 33.082C54.1523 33.5487 54.6749 33.782 55.3283 33.782C56.2523 33.782 56.8636 33.376 57.1623 32.564H58.8843C58.6603 33.348 58.2403 33.9733 57.6243 34.44C57.0083 34.8973 56.2429 35.126 55.3283 35.126C54.5909 35.126 53.9376 34.9627 53.3683 34.636C52.7989 34.3 52.3509 33.8333 52.0243 33.236C51.7069 32.6293 51.5483 31.9293 51.5483 31.136ZM64.4648 27.16C65.0528 27.16 65.5755 27.286 66.0328 27.538C66.4995 27.79 66.8635 28.1633 67.1248 28.658C67.3955 29.1527 67.5308 29.75 67.5308 30.45V35H65.9488V30.688C65.9488 29.9973 65.7761 29.47 65.4308 29.106C65.0855 28.7327 64.6141 28.546 64.0168 28.546C63.4195 28.546 62.9435 28.7327 62.5888 29.106C62.2435 29.47 62.0708 29.9973 62.0708 30.688V35H60.4748V24.64H62.0708V28.182C62.3415 27.8553 62.6821 27.6033 63.0928 27.426C63.5128 27.2487 63.9701 27.16 64.4648 27.16ZM78.9293 25.27V26.572H74.7993V29.442H78.0193V30.744H74.7993V35H73.2033V25.27H78.9293ZM87.3944 27.286V35H85.7984V34.09C85.5464 34.4073 85.2151 34.6593 84.8044 34.846C84.4031 35.0233 83.9737 35.112 83.5164 35.112C82.9097 35.112 82.3637 34.986 81.8784 34.734C81.4024 34.482 81.0244 34.1087 80.7444 33.614C80.4737 33.1193 80.3384 32.522 80.3384 31.822V27.286H81.9204V31.584C81.9204 32.2747 82.0931 32.8067 82.4384 33.18C82.7837 33.544 83.2551 33.726 83.8524 33.726C84.4497 33.726 84.9211 33.544 85.2664 33.18C85.6211 32.8067 85.7984 32.2747 85.7984 31.584V27.286H87.3944ZM91.0962 28.406C91.3295 28.014 91.6375 27.7107 92.0202 27.496C92.4122 27.272 92.8742 27.16 93.4062 27.16V28.812H93.0002C92.3749 28.812 91.8989 28.9707 91.5722 29.288C91.2549 29.6053 91.0962 30.156 91.0962 30.94V35H89.5002V27.286H91.0962V28.406ZM98.7652 27.16C99.3719 27.16 99.9132 27.286 100.389 27.538C100.875 27.79 101.253 28.1633 101.523 28.658C101.794 29.1527 101.929 29.75 101.929 30.45V35H100.347V30.688C100.347 29.9973 100.175 29.47 99.8292 29.106C99.4839 28.7327 99.0126 28.546 98.4152 28.546C97.8179 28.546 97.3419 28.7327 96.9872 29.106C96.6419 29.47 96.4692 29.9973 96.4692 30.688V35H94.8732V27.286H96.4692V28.168C96.7306 27.8507 97.0619 27.6033 97.4632 27.426C97.8739 27.2487 98.3079 27.16 98.7652 27.16ZM104.777 26.264C104.488 26.264 104.245 26.166 104.049 25.97C103.853 25.774 103.755 25.5313 103.755 25.242C103.755 24.9527 103.853 24.71 104.049 24.514C104.245 24.318 104.488 24.22 104.777 24.22C105.057 24.22 105.295 24.318 105.491 24.514C105.687 24.71 105.785 24.9527 105.785 25.242C105.785 25.5313 105.687 25.774 105.491 25.97C105.295 26.166 105.057 26.264 104.777 26.264ZM105.561 27.286V35H103.965V27.286H105.561ZM109.518 28.588V32.858C109.518 33.1473 109.584 33.3573 109.714 33.488C109.854 33.6093 110.088 33.67 110.414 33.67H111.394V35H110.134C109.416 35 108.865 34.832 108.482 34.496C108.1 34.16 107.908 33.614 107.908 32.858V28.588H106.998V27.286H107.908V25.368H109.518V27.286H111.394V28.588H109.518ZM119.851 27.286V35H118.255V34.09C118.003 34.4073 117.672 34.6593 117.261 34.846C116.86 35.0233 116.431 35.112 115.973 35.112C115.367 35.112 114.821 34.986 114.335 34.734C113.859 34.482 113.481 34.1087 113.201 33.614C112.931 33.1193 112.795 32.522 112.795 31.822V27.286H114.377V31.584C114.377 32.2747 114.55 32.8067 114.895 33.18C115.241 33.544 115.712 33.726 116.309 33.726C116.907 33.726 117.378 33.544 117.723 33.18C118.078 32.8067 118.255 32.2747 118.255 31.584V27.286H119.851ZM123.553 28.406C123.787 28.014 124.095 27.7107 124.477 27.496C124.869 27.272 125.331 27.16 125.863 27.16V28.812H125.457C124.832 28.812 124.356 28.9707 124.029 29.288C123.712 29.6053 123.553 30.156 123.553 30.94V35H121.957V27.286H123.553V28.406ZM134.4 30.954C134.4 31.2433 134.382 31.5047 134.344 31.738H128.45C128.497 32.354 128.726 32.8487 129.136 33.222C129.547 33.5953 130.051 33.782 130.648 33.782C131.507 33.782 132.114 33.4227 132.468 32.704H134.19C133.957 33.4133 133.532 33.9967 132.916 34.454C132.31 34.902 131.554 35.126 130.648 35.126C129.911 35.126 129.248 34.9627 128.66 34.636C128.082 34.3 127.624 33.8333 127.288 33.236C126.962 32.6293 126.798 31.9293 126.798 31.136C126.798 30.3427 126.957 29.6473 127.274 29.05C127.601 28.4433 128.054 27.9767 128.632 27.65C129.22 27.3233 129.892 27.16 130.648 27.16C131.376 27.16 132.025 27.3187 132.594 27.636C133.164 27.9533 133.607 28.4013 133.924 28.98C134.242 29.5493 134.4 30.2073 134.4 30.954ZM132.734 30.45C132.725 29.862 132.515 29.3907 132.104 29.036C131.694 28.6813 131.185 28.504 130.578 28.504C130.028 28.504 129.556 28.6813 129.164 29.036C128.772 29.3813 128.539 29.8527 128.464 30.45H132.734Z" fill="white"/>
<circle cx="332" cy="30" r="19" fill="#FAF5F2"/>
<circle cx="331" cy="29" r="5" stroke="#A09386" stroke-width="2"/>
<path d="M338 36L335 33" stroke="#A09386" stroke-width="2" stroke-linecap="round"/>
</svg>
