<svg width="20" height="12" viewBox="0 0 20 12" fill="none" xmlns="http://www.w3.org/2000/svg">
<path d="M15.0516 11.6033C15.5556 10.7803 15.7954 9.81987 15.7384 8.85362V5.81769C15.7384 3.12899 15.2744 1.76352 14.1375 1.76352C12.2814 1.76352 11.5807 3.01637 11.5297 5.5643V8.84893C11.5076 9.62844 11.6483 10.4039 11.9427 11.1247V11.1622C12.0241 11.3272 12.1204 11.4843 12.2304 11.6315L12.2628 11.669H7.98914L8.06339 11.5799C8.56474 10.7577 8.80296 9.79904 8.74551 8.83485V5.76607C8.74551 3.07268 8.25827 1.70722 7.14461 1.70722C5.23745 1.70722 4.51821 3.07268 4.51821 5.76607V8.82077C4.49924 9.59852 4.63986 10.3718 4.9312 11.0919V11.1294C5.01641 11.2922 5.11254 11.449 5.21889 11.5986L5.25601 11.6315H0.940552L1.01016 11.5423C1.20969 11.2702 1.69692 10.4162 1.69692 8.79731V3.94076C1.70581 3.22191 1.5831 2.50761 1.33498 1.83391C1.24285 1.58922 1.12295 1.35617 0.977675 1.13944C1.69979 1.46873 2.48136 1.6437 3.27344 1.65339C4.06553 1.66308 4.85105 1.50728 5.58083 1.19575C6.15904 0.997536 6.76612 0.899185 7.37662 0.904828C8.04164 0.878621 8.69962 1.05054 9.26884 1.39924C9.83806 1.74794 10.2934 2.25805 10.5784 2.86622C10.9536 2.26801 11.4715 1.77484 12.0845 1.43209C12.6975 1.08934 13.386 0.90802 14.0865 0.904828C17.2326 0.904828 18.5643 3.35891 18.5643 6.38077V8.81608C18.5426 9.59404 18.6833 10.3679 18.9773 11.0872V11.1247C19.0607 11.2886 19.1569 11.4455 19.265 11.5939L19.3021 11.6315H14.9867L15.0563 11.5376L15.0516 11.6033Z" fill="white"/>
</svg>
